<?xml version="1.0" standalone="no"?>
<!DOCTYPE svg PUBLIC "-//W3C//DTD SVG 20010904//EN"
 "http://www.w3.org/TR/2001/REC-SVG-20010904/DTD/svg10.dtd">
<svg version="1.0" xmlns="http://www.w3.org/2000/svg"
 width="722.000000pt" height="406.000000pt" viewBox="0 0 722.000000 406.000000"
 preserveAspectRatio="xMidYMid meet">

<g transform="translate(0.000000,406.000000) scale(0.100000,-0.100000)"
fill="#000000" stroke="none">
<path d="M4663 3977 c-67 -25 -142 -123 -143 -186 0 -15 15 -37 41 -61 l41
-37 -27 -19 c-52 -36 -74 -66 -81 -109 -9 -63 10 -109 63 -152 96 -79 104 -90
97 -120 -9 -38 -40 -88 -91 -145 -52 -58 -61 -89 -38 -124 21 -33 40 -26 40
16 0 27 6 36 35 52 19 11 43 29 52 41 17 22 17 22 51 3 48 -25 74 -15 87 34
17 62 31 70 121 70 l79 0 45 43 c39 38 45 49 45 84 0 47 -12 60 -72 78 -34 9
-44 17 -46 37 -5 38 25 55 118 68 137 19 178 44 166 102 -4 18 -10 56 -15 83
-12 80 -65 164 -129 202 -52 32 -124 31 -177 -2 -53 -32 -82 -31 -120 4 -16
15 -45 33 -64 40 -40 13 -37 13 -78 -2z m84 -22 c20 -9 43 -24 50 -35 23 -33
76 -36 127 -6 55 32 126 35 171 7 48 -29 108 -124 117 -184 4 -29 10 -66 13
-82 5 -23 2 -35 -12 -47 -23 -21 -87 -38 -141 -38 -85 0 -142 -47 -128 -104 5
-19 16 -28 49 -37 54 -16 67 -26 67 -55 0 -36 -18 -67 -54 -92 -26 -18 -46
-22 -104 -22 -83 0 -119 -22 -131 -80 -8 -39 -39 -52 -61 -25 -19 23 -57 19
-75 -9 -9 -14 -29 -29 -45 -34 -33 -12 -53 -43 -43 -69 5 -14 3 -16 -7 -6 -20
19 -4 56 54 121 29 33 62 81 72 107 16 42 16 50 3 74 -8 14 -35 39 -61 56 -54
35 -87 79 -95 129 -8 50 13 92 63 127 24 16 44 35 44 42 0 7 -18 28 -41 48
-39 33 -41 38 -35 71 10 52 60 116 109 139 51 23 49 23 94 4z"/>
<path d="M4820 3805 c-10 -12 -10 -18 0 -31 12 -13 15 -13 28 0 15 15 10 46
-6 46 -5 0 -15 -7 -22 -15z"/>
<path d="M4753 3599 c-16 -16 -5 -39 17 -39 20 0 30 17 22 38 -5 15 -24 16
-39 1z"/>
<path d="M4726 3394 c-8 -21 1 -34 24 -34 25 0 35 17 20 35 -16 20 -36 19 -44
-1z"/>
<path d="M3974 3906 c-45 -20 -86 -86 -54 -86 6 0 10 6 10 13 0 29 66 72 95
61 23 -9 18 -28 -20 -74 -34 -40 -49 -100 -25 -100 6 0 10 13 10 28 0 17 10
38 24 51 14 13 30 37 37 53 11 28 11 33 -10 49 -27 22 -27 22 -67 5z"/>
<path d="M4278 3750 c-35 -34 -46 -36 -74 -15 -32 24 -91 19 -119 -11 -14 -15
-25 -36 -25 -47 0 -10 -17 -36 -39 -56 -41 -39 -56 -83 -39 -116 17 -32 29
-36 89 -29 54 5 57 4 77 -24 26 -36 79 -48 127 -28 33 14 75 70 75 100 0 9 8
19 18 22 80 26 102 52 102 125 0 33 -6 47 -34 75 -29 29 -41 34 -80 34 -38 0
-52 -6 -78 -30z m147 -10 c18 -15 29 -71 21 -105 -9 -36 -41 -65 -71 -65 -21
0 -29 -9 -49 -54 -39 -88 -111 -109 -163 -47 -21 23 -30 26 -90 26 -67 0 -68
0 -71 29 -5 44 5 70 36 87 18 10 32 30 40 56 7 22 19 46 27 53 17 14 64 9 112
-11 29 -12 33 -11 69 20 33 29 42 33 81 28 23 -2 50 -10 58 -17z"/>
<path d="M4322 3623 c5 -26 38 -29 38 -4 0 15 -6 21 -21 21 -14 0 -19 -5 -17
-17z"/>
<path d="M4213 3613 c-22 -8 -15 -43 7 -43 13 0 20 7 20 19 0 22 -9 30 -27 24z"/>
<path d="M4087 3603 c-14 -13 -7 -33 11 -33 24 0 32 8 25 26 -5 15 -25 19 -36
7z"/>
<path d="M3970 3670 c0 -5 5 -10 10 -10 6 0 10 5 10 10 0 6 -4 10 -10 10 -5 0
-10 -4 -10 -10z"/>
<path d="M3754 3650 c3 -14 6 -51 6 -82 0 -32 5 -58 10 -58 6 0 10 23 10 52
l0 52 30 -29 c16 -16 33 -25 37 -21 4 4 -17 30 -46 59 -45 44 -53 48 -47 27z"/>
<path d="M3810 3549 c0 -9 10 -29 21 -44 20 -25 21 -31 10 -80 -15 -68 -42
-104 -73 -98 -32 5 -83 -29 -99 -66 -8 -17 -20 -31 -28 -31 -25 0 -81 -50
-103 -93 -18 -34 -22 -59 -22 -124 0 -76 3 -87 30 -125 26 -38 35 -43 73 -46
26 -2 52 3 66 12 14 9 36 16 50 16 41 0 30 -29 -19 -51 -48 -21 -86 -61 -86
-90 0 -9 11 -26 25 -37 l25 -20 -31 -20 c-19 -12 -27 -22 -20 -26 6 -4 26 4
43 17 18 13 53 27 78 31 64 10 122 41 186 99 63 57 84 92 86 143 4 98 -108
125 -213 52 -27 -18 -27 -18 -45 10 -10 15 -19 48 -20 73 -2 49 -37 141 -60
160 -11 9 -11 15 1 38 20 39 38 51 80 55 50 4 80 39 95 112 13 60 10 72 -30
124 -14 18 -20 21 -20 9z m-165 -401 c0 -35 4 -73 8 -85 7 -20 5 -23 -20 -23
-15 0 -43 -9 -61 -20 -41 -25 -42 -25 -42 3 0 53 30 125 65 156 20 17 39 31
43 31 4 0 7 -28 7 -62z m70 -41 c25 -85 17 -109 -23 -66 -22 23 -32 62 -32
123 l1 41 19 -23 c11 -13 27 -47 35 -75z m-14 -104 c20 -9 43 -27 50 -41 12
-22 11 -26 -15 -48 -30 -26 -48 -26 -144 -2 -49 12 -56 20 -48 53 13 50 89 68
157 38z m290 -34 c34 -64 -12 -150 -117 -221 -79 -54 -171 -78 -136 -36 6 7
16 34 22 60 10 38 17 49 43 57 16 6 41 11 54 11 27 0 42 28 22 41 -8 5 -31 9
-52 9 -47 0 -60 24 -26 48 51 37 86 51 131 52 38 0 49 -4 59 -21z m-358 -86
c49 -7 48 -23 -1 -23 -27 0 -45 6 -58 22 -19 21 -19 21 1 14 11 -5 37 -10 58
-13z m222 -20 c-11 -2 -32 -8 -47 -13 -22 -7 -28 -6 -28 6 0 10 12 14 48 13
26 -1 38 -3 27 -6z m-111 -80 c-8 -33 -31 -80 -41 -86 -16 -9 -53 13 -53 31 0
19 29 51 65 70 31 17 36 14 29 -15z"/>
<path d="M5332 3518 c-5 -7 -22 -72 -36 -145 -29 -148 -29 -143 -18 -143 8 0
16 18 57 119 39 96 37 217 -3 169z"/>
<path d="M3331 3464 c-22 -18 -31 -35 -31 -55 0 -16 5 -29 10 -29 6 0 10 11
10 25 0 30 32 65 59 65 27 0 51 -37 51 -77 0 -27 -8 -38 -44 -65 -49 -36 -70
-70 -61 -99 9 -28 26 -23 19 5 -6 26 3 38 76 99 30 25 32 31 27 73 -9 82 -58
107 -116 58z"/>
<path d="M5577 3402 c12 -9 61 -39 108 -67 92 -53 195 -130 195 -144 0 -12
-66 3 -196 46 -116 38 -163 40 -130 5 8 -10 54 -36 101 -57 47 -21 85 -41 85
-45 0 -4 -21 -3 -47 2 -103 18 -160 21 -168 9 -10 -17 21 -48 83 -83 84 -48
64 -58 -42 -21 -48 16 -68 17 -84 1 -9 -9 -6 -18 15 -40 15 -15 22 -28 16 -28
-17 0 -43 -29 -43 -48 0 -14 3 -13 18 5 9 12 30 23 46 25 42 4 42 20 1 42 -35
19 -46 36 -22 36 6 0 40 -9 75 -20 48 -15 68 -17 83 -9 11 6 18 16 16 22 -2 6
-37 32 -78 57 -66 40 -71 45 -47 48 14 2 60 -4 101 -12 42 -9 83 -13 91 -10
36 14 13 37 -80 80 -53 25 -94 47 -92 49 2 3 57 -13 122 -35 117 -39 189 -50
201 -30 14 22 -109 117 -267 206 -63 36 -98 45 -61 16z"/>
<path d="M2965 3342 c-34 -21 -105 -97 -105 -112 0 -20 16 -9 43 30 26 36 90
80 117 80 27 0 7 -62 -42 -134 -79 -114 -98 -148 -98 -178 0 -59 54 -21 111
79 17 29 50 79 74 110 66 88 135 119 135 61 0 -29 -21 -64 -104 -172 -99 -130
-117 -176 -67 -176 13 0 31 19 55 58 39 63 122 150 133 138 10 -10 -21 -64
-60 -106 -72 -76 -79 -110 -22 -96 20 5 23 3 18 -10 -4 -12 -2 -15 8 -12 8 3
13 15 11 29 -5 32 -9 34 -27 19 -35 -29 -20 0 36 70 32 41 59 81 59 90 0 27
-16 42 -38 36 -26 -9 -105 -95 -139 -153 -23 -39 -43 -56 -43 -35 0 12 51 86
125 182 67 88 85 133 66 169 -33 60 -130 -17 -231 -182 -54 -88 -80 -120 -80
-98 0 21 40 92 92 163 53 72 72 124 56 152 -12 21 -46 20 -83 -2z"/>
<path d="M4169 3312 c-30 -20 -57 -49 -82 -91 -42 -71 -47 -100 -16 -108 20
-6 20 -6 -5 -32 -49 -51 -56 -113 -15 -126 23 -8 77 22 181 100 78 59 118 78
138 65 38 -23 -56 -88 -217 -149 -89 -35 -108 -50 -98 -80 8 -25 43 -36 92
-28 34 6 45 13 135 88 24 20 53 40 66 43 19 7 22 4 22 -22 0 -42 -46 -77 -133
-102 -92 -26 -142 -51 -142 -70 0 -25 41 -23 109 4 128 52 128 24 0 -50 -49
-28 -89 -55 -89 -60 0 -16 62 -16 101 0 l39 16 -25 -20 c-87 -70 -100 -83
-100 -98 1 -15 3 -14 18 3 9 11 45 42 80 69 35 26 61 53 59 59 -6 16 -22 13
-84 -12 -66 -26 -69 -14 -6 19 93 49 123 70 123 89 0 24 -21 32 -63 25 -24 -4
-19 0 20 16 71 29 113 72 113 115 0 64 -39 59 -124 -15 -31 -28 -70 -57 -86
-65 -37 -19 -96 -20 -103 -1 -8 20 10 33 77 56 190 65 300 160 220 190 -32 13
-71 -6 -188 -94 -94 -70 -122 -84 -139 -67 -14 14 18 86 47 104 12 8 60 26
107 40 111 34 157 81 114 117 -23 19 -56 5 -120 -51 -65 -56 -102 -76 -119
-59 -21 21 61 147 114 175 16 8 42 16 60 17 46 3 48 18 3 18 -26 0 -55 -10
-84 -28z m135 -91 c17 -26 -30 -61 -104 -76 l-35 -8 55 47 c53 46 74 54 84 37z
m-129 -406 c-27 -12 -54 -20 -60 -17 -12 7 63 42 90 41 12 0 0 -10 -30 -24z"/>
<path d="M5227 3134 c-14 -15 -6 -34 14 -34 14 0 19 5 17 17 -3 18 -20 27 -31
17z"/>
<path d="M3350 3100 c0 -5 5 -10 10 -10 6 0 10 5 10 10 0 6 -4 10 -10 10 -5 0
-10 -4 -10 -10z"/>
<path d="M4694 3000 c1 -49 4 -90 8 -90 13 0 21 49 15 91 -3 21 -2 39 1 39 10
-1 52 -133 52 -163 0 -53 -39 -134 -87 -177 l-45 -43 -87 8 c-47 4 -107 8
-132 8 -54 0 -132 -35 -155 -71 -16 -24 -15 -26 2 -39 23 -17 32 -17 131 4 99
20 136 13 141 -29 3 -22 -2 -29 -23 -34 -14 -3 -35 -4 -48 -1 -12 3 -43 11
-69 18 -41 11 -50 10 -79 -8 -50 -28 -99 -98 -99 -138 0 -21 -11 -51 -31 -79
-37 -56 -51 -102 -43 -139 5 -23 10 -28 28 -24 11 3 39 10 61 16 42 11 57 4
76 -31 10 -18 7 -19 -48 -13 -52 6 -60 5 -81 -17 -73 -74 -118 -152 -106 -182
3 -9 -1 -34 -10 -56 -18 -46 -19 -50 -8 -50 5 0 16 16 25 35 15 32 19 35 39
24 27 -14 117 -6 159 15 l31 16 -7 -38 c-3 -20 -13 -47 -21 -59 -13 -21 -16
-21 -54 -8 -36 13 -46 13 -80 -1 -27 -11 -40 -22 -40 -35 0 -10 5 -19 10 -19
6 0 10 7 10 15 0 21 58 34 98 22 37 -12 39 -18 15 -39 -48 -42 -166 -39 -194
5 -4 6 -9 6 -13 -1 -13 -21 35 -46 98 -50 71 -5 115 12 142 53 8 13 31 29 50
35 19 7 51 27 71 46 19 19 37 34 39 34 9 0 -6 -71 -21 -104 -22 -45 -27 -49
-106 -76 -50 -16 -83 -21 -133 -18 -69 4 -85 -5 -39 -23 41 -15 114 -13 148 5
17 9 36 16 43 16 7 0 27 7 43 16 29 14 30 14 20 -3 -15 -28 -74 -80 -99 -88
-13 -4 -29 -2 -37 5 -9 7 -15 8 -20 1 -3 -6 5 -16 19 -22 19 -9 32 -9 55 1 30
12 88 69 108 104 9 16 12 16 52 0 l42 -17 -21 -22 c-25 -26 -51 -105 -44 -132
3 -13 -6 -24 -32 -38 -100 -54 -111 -177 -24 -262 37 -36 106 -58 153 -49 17
3 51 10 74 14 31 7 40 6 37 -3 -7 -17 26 -28 42 -14 21 17 17 30 -16 71 -23
27 -32 51 -37 90 -5 52 -38 123 -67 147 -14 11 -14 16 -1 40 15 31 6 98 -20
138 -12 18 -12 22 1 27 34 13 83 6 103 -16 33 -35 36 -80 11 -180 -44 -177 4
-268 142 -268 31 0 60 -5 63 -10 14 -23 -105 -131 -157 -144 -40 -9 -43 9 -6
38 32 24 53 27 30 4 -26 -26 -10 -27 22 -1 19 15 32 31 30 35 -3 4 -28 8 -56
8 -39 0 -49 -3 -45 -14 3 -8 -3 -22 -14 -32 -25 -23 -24 -42 4 -55 32 -14 87
11 149 69 62 58 72 76 58 102 -11 21 -10 21 67 14 43 -4 87 -13 98 -20 30 -22
54 -17 86 17 23 24 29 40 29 74 0 68 26 77 167 60 62 -8 62 -8 98 28 19 19 35
45 35 56 0 28 -22 71 -49 95 -12 11 -21 24 -21 30 0 5 17 -7 38 -27 45 -44 58
-46 67 -9 3 15 20 45 37 67 17 22 36 46 41 53 6 8 5 12 -4 12 -8 -1 -30 -21
-49 -45 -42 -55 -52 -45 -48 52 l3 68 -57 -3 c-46 -3 -59 0 -64 12 -10 26 35
82 101 128 73 50 85 64 85 100 0 20 -7 32 -24 39 l-25 12 36 53 c42 63 63 70
63 20 0 -19 5 -38 11 -41 19 -12 97 16 125 46 32 33 41 35 64 14 10 -9 27 -18
39 -20 32 -6 124 13 132 27 5 7 11 9 16 4 4 -4 1 -11 -8 -16 -37 -21 -128
-103 -123 -111 3 -5 27 10 54 33 27 23 66 52 86 63 21 12 39 25 41 31 2 5 -25
15 -59 22 -35 6 -74 14 -88 18 -24 5 -24 5 -6 -10 11 -9 28 -16 38 -16 37 0
16 -18 -29 -24 -36 -5 -53 -2 -80 14 -45 27 -51 26 -93 -14 -19 -19 -49 -37
-67 -41 -31 -6 -32 -5 -35 32 -3 33 -6 38 -27 38 -18 0 -37 -16 -71 -60 -26
-33 -53 -60 -61 -60 -25 0 -11 45 31 97 41 52 50 87 27 110 -7 7 -16 21 -20
31 -8 21 -30 22 -47 2 -10 -12 -10 -18 1 -31 11 -13 6 -21 -31 -54 l-44 -39
-13 42 c-12 39 -11 46 17 102 44 90 48 128 16 159 -25 26 -73 34 -111 20 -29
-12 -45 -60 -45 -141 0 -90 -7 -105 -46 -105 -36 0 -64 34 -64 77 0 27 12 44
69 101 82 83 96 106 80 135 -9 17 -16 20 -42 14 -18 -4 -77 -10 -132 -14 -84
-5 -109 -11 -153 -36 -71 -39 -122 -96 -123 -138 -3 -103 -10 -152 -24 -173
-21 -32 -53 -31 -61 1 -8 32 -40 55 -77 55 -40 0 -134 -92 -183 -178 -5 -9
-144 109 -144 122 0 1 16 2 36 3 48 1 114 48 128 90 6 18 21 42 33 54 l21 22
16 -31 c23 -44 49 -56 91 -42 45 15 71 49 91 119 34 117 32 114 104 136 l25 7
-27 -29 c-16 -16 -28 -35 -28 -43 0 -8 18 5 40 28 23 23 45 42 50 42 25 0 6
20 -27 29 -72 19 -113 23 -113 13 0 -5 17 -13 37 -17 l38 -7 -40 -19 c-48 -23
-50 -27 -71 -111 -18 -77 -40 -110 -84 -128 -35 -15 -51 -6 -75 42 -10 22 -12
35 -4 49 6 13 6 25 -1 38 -20 39 -51 51 -129 51 -71 0 -77 -2 -126 -39 -28
-22 -60 -47 -70 -58 -18 -17 -18 -17 -12 16 18 89 80 136 157 120 92 -19 118
-21 139 -10 25 14 29 62 5 85 -31 32 -70 33 -196 5 -32 -7 -60 -10 -63 -7 -12
12 9 40 44 57 55 28 99 32 179 17 100 -19 150 -7 204 51 66 70 92 174 64 252
-21 57 -20 59 9 31 14 -13 27 -21 30 -18 5 5 -108 128 -117 128 -3 0 -4 -40
-4 -90z m573 -507 c2 -6 -9 -26 -24 -43 l-28 -32 3 47 c4 40 7 46 25 43 11 -2
22 -8 24 -15z m-143 -39 c-20 -20 -43 -53 -51 -73 -15 -34 -14 -36 11 -58 16
-13 26 -32 26 -48 0 -40 26 -81 60 -95 28 -11 34 -11 58 7 25 19 27 26 32 115
3 59 10 101 19 112 19 23 83 21 106 -4 16 -18 16 -24 5 -67 -18 -66 -51 -122
-74 -125 -33 -5 -57 -51 -67 -127 -10 -85 -24 -117 -61 -144 -25 -19 -28 -19
-52 -4 -28 19 -56 97 -56 159 0 65 -26 114 -74 138 -64 30 -98 27 -135 -15
l-31 -36 0 58 c0 116 32 168 133 217 39 19 68 25 120 26 l68 0 -37 -36z m72
-19 c-3 -13 -24 -42 -46 -66 -33 -36 -41 -40 -55 -29 -13 11 -13 17 8 52 29
53 91 106 95 82 2 -8 1 -26 -2 -39z m-738 -11 c28 -19 29 -44 2 -44 -52 0
-170 -83 -170 -120 0 -36 89 -41 151 -9 23 11 43 19 45 16 8 -8 -39 -59 -65
-69 -14 -5 -46 -10 -71 -10 -61 0 -84 28 -75 92 13 86 47 125 135 154 23 7 24
7 48 -10z m84 -1 c23 -21 25 -58 2 -49 -9 3 -19 6 -24 6 -5 0 -15 14 -24 30
-14 29 -13 30 6 30 12 0 30 -7 40 -17z m-49 -73 c10 -38 -4 -58 -55 -80 -50
-22 -118 -24 -125 -4 -6 19 125 101 168 104 4 0 9 -9 12 -20z m40 4 c3 -3 3
-13 0 -21 -5 -12 -7 -12 -14 -1 -15 23 -4 40 14 22z m-275 -50 c-12 -37 -12
-38 -16 -11 -2 16 2 35 9 43 18 22 20 12 7 -32z m-5 -95 c23 -32 22 -34 -14
-37 -17 -1 -39 -7 -49 -12 -10 -6 -22 -10 -26 -10 -13 0 7 84 28 118 l21 34
12 -34 c6 -19 19 -45 28 -59z m717 22 c0 -6 -4 -12 -10 -16 -21 -13 -29 -78
-19 -156 11 -81 3 -119 -25 -119 -54 0 -98 124 -71 201 25 70 52 99 91 99 19
0 34 -4 34 -9z m52 -33 c19 -21 20 -32 13 -150 -4 -88 -3 -128 4 -128 7 0 11
25 11 63 0 34 5 69 10 77 7 11 10 6 10 -20 0 -46 30 -102 64 -118 21 -11 31
-11 53 0 45 22 69 69 81 159 7 60 16 87 31 103 l21 20 0 -41 c0 -22 6 -45 13
-52 8 -6 14 -34 15 -68 2 -79 13 -88 89 -72 74 15 95 9 91 -28 -2 -21 -16 -36
-52 -60 -101 -66 -143 -123 -126 -169 10 -26 13 -27 66 -21 l56 6 -7 -58 c-5
-44 -3 -66 9 -89 26 -51 6 -44 -73 26 -102 92 -135 106 -221 98 -63 -7 -68 -6
-83 17 -31 48 -64 52 -172 21 -109 -31 -132 -46 -168 -107 -28 -47 -45 -117
-29 -117 5 0 13 15 16 33 3 17 19 55 36 83 28 50 32 53 110 78 45 14 100 26
124 26 36 0 46 -5 65 -31 23 -31 24 -31 86 -24 36 3 80 2 101 -4 48 -13 101
-60 110 -98 4 -15 22 -45 40 -66 42 -46 43 -79 7 -113 -26 -24 -33 -25 -83
-19 -96 12 -135 10 -163 -8 -22 -14 -27 -25 -27 -61 0 -29 -7 -52 -21 -70 -23
-30 -40 -32 -73 -11 -16 11 -53 16 -118 18 -108 2 -121 9 -150 74 -10 23 -23
45 -28 48 -6 3 -10 21 -10 38 0 41 -10 77 -21 77 -29 0 29 -176 75 -229 l21
-24 -43 7 c-57 9 -89 33 -102 76 -14 50 -13 77 10 161 30 115 26 153 -23 207
-23 25 -79 30 -121 11 -19 -9 -29 -8 -47 5 -13 9 -32 16 -41 16 -16 0 -17 6
-12 43 4 23 12 63 18 88 l11 47 28 -47 c34 -56 82 -91 124 -91 100 0 213 103
213 193 l0 37 33 -20 c77 -47 98 -15 89 143 -4 84 -2 100 13 117 23 25 23 25
47 -2z m-305 -25 c14 -21 13 -22 -14 -28 -75 -16 -139 -62 -186 -135 -29 -45
-29 -45 -23 -12 7 40 49 102 107 160 50 49 91 54 116 15z m793 8 c0 -10 -11
-33 -25 -52 -55 -76 -66 -95 -62 -116 4 -24 -27 -43 -43 -26 -13 12 -22 86
-13 98 18 23 125 115 134 115 5 0 9 -8 9 -19z m-160 -33 c0 -19 -2 -20 -10 -8
-13 19 -13 30 0 30 6 0 10 -10 10 -22z m-527 -18 c-5 -19 -23 -29 -23 -12 0 7
20 32 26 32 1 0 0 -9 -3 -20z m-469 -6 c19 -19 20 -24 3 -24 -7 0 -18 9 -25
20 -15 24 0 27 22 4z m399 -6 c12 -6 29 -14 37 -18 17 -8 35 -153 25 -208 -8
-43 -55 -95 -110 -121 -57 -27 -99 -27 -136 0 -31 22 -79 105 -79 136 0 31 57
119 104 160 62 54 118 73 159 51z m-513 -26 c0 -4 -14 -13 -30 -19 -34 -13
-31 3 4 17 27 11 26 11 26 2z m48 -30 c2 -7 -3 -12 -11 -12 -8 0 -38 -15 -66
-34 l-51 -35 0 25 c0 21 10 29 53 49 55 25 68 26 75 7z m42 14 c0 -11 -19 -15
-25 -6 -3 5 1 10 9 10 9 0 16 -2 16 -4z m55 -6 c3 -5 -1 -10 -9 -10 -8 0 -18
5 -21 10 -3 6 1 10 9 10 8 0 18 -4 21 -10z m63 -30 c25 -23 26 -29 12 -50 -8
-13 -10 -13 -10 1 0 9 -9 24 -20 34 -21 19 -26 35 -12 35 5 0 18 -9 30 -20z
m-108 -32 c0 -49 -5 -47 -13 5 -3 20 -2 37 4 37 5 0 9 -19 9 -42z m-29 -24 c7
-39 6 -51 -8 -66 -23 -26 -76 -23 -110 6 l-28 24 20 22 c20 22 107 71 114 64
2 -1 7 -24 12 -50z m74 47 c3 -6 -1 -25 -9 -43 l-15 -33 2 42 c2 42 10 53 22
34z m46 -135 c-22 -45 -46 -71 -95 -102 l-30 -19 8 25 c4 14 10 41 13 60 3 19
21 53 39 77 18 23 36 53 40 65 7 21 9 19 26 -20 19 -43 19 -44 -1 -86z m-304
42 c-12 -16 -24 -28 -28 -28 -10 0 7 58 23 77 23 28 28 -18 5 -49z m88 -48 c8
0 15 -4 15 -10 0 -12 -90 -13 -109 -1 -10 7 -9 13 9 34 l22 25 23 -24 c13 -13
31 -24 40 -24z m345 -350 c0 -66 -16 -76 -86 -55 -18 5 3 95 28 123 l23 23 17
-21 c12 -14 18 -39 18 -70z m-47 -96 c27 5 37 2 54 -16 37 -41 51 -72 57 -127
l5 -54 -34 33 c-33 32 -61 36 -35 5 10 -12 10 -15 -4 -15 -13 0 -16 -5 -11
-20 5 -16 2 -20 -17 -21 -17 0 -10 -7 27 -24 l50 -23 -28 -11 c-77 -30 -167 4
-204 79 -28 55 -29 95 -3 138 26 42 79 75 97 60 7 -6 27 -8 46 -4z m136 -234
c15 -8 20 -15 13 -22 -12 -12 -92 27 -92 46 0 23 13 26 34 7 12 -10 32 -24 45
-31z"/>
<path d="M4970 1966 c0 -4 7 -23 15 -43 8 -19 15 -51 15 -69 0 -19 4 -34 9
-34 11 0 74 110 67 117 -2 3 -15 -11 -28 -31 l-23 -35 -16 46 c-8 26 -21 49
-27 51 -7 2 -12 1 -12 -2z"/>
<path d="M4847 1599 c-24 -14 -47 -62 -47 -99 0 -45 17 -36 23 12 9 67 72 102
111 62 27 -27 19 -57 -29 -104 -39 -39 -45 -50 -45 -86 0 -24 4 -45 9 -49 14
-8 20 7 11 30 -11 29 4 60 50 104 46 43 51 74 19 115 -22 28 -68 35 -102 15z"/>
<path d="M5274 1475 c-3 -8 -3 -19 0 -24 9 -13 36 -2 36 14 0 19 -30 27 -36
10z"/>
<path d="M5115 1470 c-8 -14 3 -30 21 -30 8 0 14 9 14 20 0 21 -24 28 -35 10z"/>
<path d="M4974 1449 c-9 -15 11 -33 30 -26 9 4 13 13 10 22 -7 17 -30 20 -40
4z"/>
<path d="M4896 1303 c-11 -11 -6 -23 9 -23 8 0 15 4 15 9 0 13 -16 22 -24 14z"/>
<path d="M4927 3022 c-10 -10 -17 -26 -17 -36 0 -10 -12 -33 -26 -52 -17 -22
-27 -48 -28 -71 -1 -31 3 -39 27 -51 40 -19 36 -31 -32 -81 -27 -20 -32 -65
-9 -88 10 -9 39 -16 82 -17 44 -2 72 -8 84 -19 29 -27 67 -21 96 14 14 17 26
34 26 38 0 5 11 6 26 3 42 -8 74 31 74 90 0 86 -45 150 -121 172 l-43 13 26
17 c15 10 24 24 22 31 -8 20 -61 38 -93 32 -19 -4 -33 -1 -41 8 -17 20 -33 19
-53 -3z m43 -12 c0 -5 -9 -14 -20 -20 -15 -8 -20 -8 -20 3 0 8 3 17 7 20 10
10 33 8 33 -3z m98 -16 c27 -8 28 -21 2 -29 -11 -3 -20 -13 -20 -21 0 -8 -10
-14 -25 -14 -21 0 -25 5 -25 29 0 37 20 47 68 35z m-88 -39 c0 -23 -2 -24 -20
-15 -23 12 -26 26 -7 33 23 10 27 7 27 -18z m-24 -32 c34 -17 35 -18 13 -23
-15 -3 -31 -20 -42 -43 -16 -32 -21 -35 -38 -27 -10 6 -19 18 -19 28 0 17 35
82 45 82 2 0 21 -8 41 -17z m114 -33 c23 -23 24 -27 6 -59 -14 -24 -14 -24
-20 -3 -4 12 -4 26 -1 32 3 5 -3 10 -14 10 -14 0 -21 6 -21 20 0 11 7 20 15
20 8 0 24 -9 35 -20z m87 -12 c69 -64 71 -198 2 -198 -12 0 -23 10 -29 25 -5
14 -16 28 -24 31 -23 9 -28 56 -10 93 13 26 14 38 5 58 -10 23 -10 24 11 18
13 -4 33 -16 45 -27z m-143 -17 c3 -4 -3 -16 -14 -26 -27 -25 -27 -75 1 -82
12 -4 18 -11 15 -20 -4 -8 -9 -26 -12 -39 -3 -13 -11 -24 -18 -24 -32 1 -77
72 -55 86 6 3 8 20 5 38 -4 21 0 41 14 64 17 28 23 31 39 22 11 -5 22 -14 25
-19z m24 -60 c4 -28 -8 -43 -27 -32 -9 6 -11 18 -7 36 8 31 30 28 34 -4z
m-118 -94 c9 -19 29 -39 50 -48 l34 -17 -68 3 c-54 1 -72 6 -82 20 -19 26 -18
31 12 54 34 27 36 27 54 -12z m144 27 c35 -13 12 -54 -29 -54 -11 0 -12 6 -4
30 12 33 11 32 33 24z m26 -70 c0 -3 -5 -14 -10 -25 -13 -23 -33 -25 -50 -4
-10 12 -8 16 11 24 28 11 49 13 49 5z"/>
<path d="M3186 2971 c-3 -5 3 -19 13 -32 18 -23 19 -23 60 -7 44 17 50 13 26
-18 -36 -48 5 -61 60 -18 34 26 55 25 55 -1 0 -7 -9 -16 -19 -20 -31 -9 -91
-82 -91 -110 0 -13 8 -28 17 -34 24 -13 58 7 116 68 55 58 83 65 93 24 8 -29
13 -23 -94 -104 -40 -30 -52 -46 -50 -62 2 -17 9 -22 31 -20 24 2 27 0 17 -12
-15 -18 -6 -45 14 -45 10 0 13 -6 9 -17 -6 -16 -5 -16 10 -4 23 18 21 30 -4
39 l-20 8 21 27 c18 23 19 28 7 33 -9 3 -25 0 -37 -6 -12 -6 -25 -9 -28 -5 -7
7 27 39 107 103 44 35 48 47 29 87 -19 42 -52 33 -121 -35 -34 -33 -69 -60
-79 -60 -38 0 -10 58 48 100 47 33 53 49 28 74 -21 21 -24 21 -72 -15 -45 -33
-55 -29 -20 8 20 22 21 24 5 40 -16 16 -19 16 -52 0 -44 -21 -55 -21 -55 -3 0
18 -17 30 -24 17z"/>
<path d="M2871 2923 c-13 -46 -14 -73 -2 -73 5 0 11 18 15 40 7 45 14 48 46
20 24 -21 50 -27 50 -11 0 5 -8 12 -19 16 -10 3 -26 14 -36 25 -27 30 -43 24
-54 -17z"/>
<path d="M2930 2871 c0 -5 7 -25 16 -46 18 -43 14 -51 -16 -35 -52 28 -110
-28 -110 -107 0 -53 14 -91 47 -125 24 -25 25 -30 13 -52 -9 -17 -11 -44 -7
-85 8 -76 -4 -92 -65 -84 -24 3 -44 7 -46 8 -2 2 11 24 27 51 42 65 42 116 1
172 -16 23 -30 44 -30 47 0 3 11 5 25 5 14 0 25 4 25 9 0 10 -98 26 -107 18
-3 -3 0 -20 6 -38 6 -18 11 -47 11 -65 0 -18 5 -36 11 -40 12 -7 8 78 -5 109
-5 10 -4 17 3 17 6 0 11 -5 11 -11 0 -6 14 -30 30 -54 35 -51 38 -90 11 -143
-21 -40 -65 -92 -79 -92 -18 0 -52 -42 -52 -66 0 -13 -18 -50 -39 -82 -21 -31
-45 -77 -52 -102 -7 -25 -23 -57 -35 -73 -34 -40 -40 -105 -17 -158 20 -45 49
-77 59 -66 4 3 -5 20 -19 36 -40 48 -46 121 -14 172 9 14 13 10 31 -25 25 -50
67 -73 102 -57 59 26 6 141 -65 141 -17 0 -31 2 -31 4 0 14 25 67 52 109 l30
48 35 -36 c19 -19 40 -35 48 -35 24 0 17 18 -12 32 -15 7 -32 25 -37 40 -8 22
-4 32 24 68 32 40 35 42 84 40 28 -2 58 -2 67 -1 25 2 38 43 33 107 -6 69 11
102 43 86 10 -5 44 -15 76 -22 98 -22 141 19 76 74 -38 33 -97 35 -145 5 -41
-25 -64 -16 -88 35 -29 61 -16 143 26 170 13 8 25 6 47 -7 25 -15 30 -15 41
-2 9 11 8 25 -5 65 -9 27 -21 50 -26 50 -5 0 -9 -4 -9 -9z m149 -322 c46 -43
4 -60 -84 -34 -59 17 -69 30 -32 45 40 16 92 11 116 -11z m-384 -259 c-10 -11
-20 -18 -23 -15 -7 6 18 35 31 35 5 0 2 -9 -8 -20z m-51 -281 c29 -23 36 -76
11 -85 -34 -13 -95 57 -81 93 8 19 40 16 70 -8z"/>
<path d="M5795 2833 c-40 -9 -110 -34 -120 -43 -6 -5 -31 -12 -55 -15 -43 -5
-80 -28 -68 -41 4 -3 17 1 29 9 11 9 27 13 34 11 7 -3 46 9 87 28 71 32 77 33
203 33 115 0 135 -3 171 -22 69 -37 94 -75 94 -142 0 -49 5 -65 30 -99 40 -55
38 -86 -8 -147 -42 -55 -105 -96 -149 -95 -229 5 -237 6 -295 34 -39 18 -80
29 -130 33 -40 3 -81 10 -91 15 -20 10 -67 98 -67 126 0 10 18 55 40 101 44
92 44 91 30 91 -14 0 -90 -163 -90 -193 0 -37 49 -126 79 -141 14 -7 59 -16
100 -20 51 -4 94 -16 140 -37 55 -26 74 -30 111 -25 60 9 56 9 127 0 102 -11
159 19 227 121 34 52 33 92 -4 141 -25 33 -29 48 -30 102 0 60 -2 64 -42 105
-58 57 -122 77 -242 76 -50 -1 -100 -3 -111 -6z"/>
<path d="M3185 2795 c-25 -24 -31 -49 -19 -79 11 -29 25 -17 19 17 -5 25 -2
37 15 52 19 17 22 17 37 3 14 -15 14 -21 -3 -67 -14 -41 -15 -55 -6 -76 7 -14
17 -23 23 -20 7 5 6 11 -2 21 -12 15 -9 40 12 90 11 28 10 36 -4 58 -22 32
-41 33 -72 1z"/>
<path d="M3280 2580 c0 -5 5 -10 10 -10 6 0 10 5 10 10 0 6 -4 10 -10 10 -5 0
-10 -4 -10 -10z"/>
<path d="M3778 2576 c-78 -30 -118 -74 -118 -131 0 -14 -5 -25 -11 -25 -12 0
-8 80 6 113 4 9 3 17 -3 17 -26 0 -40 -97 -22 -146 6 -15 8 -29 6 -31 -3 -3
-35 11 -73 31 -92 49 -178 63 -285 47 -154 -24 -254 -93 -314 -218 -21 -42
-45 -79 -58 -84 -37 -18 -92 -99 -162 -238 -57 -115 -37 -280 47 -375 22 -24
39 -53 39 -64 0 -12 5 -24 10 -27 6 -3 10 1 10 10 0 12 6 14 28 9 l27 -6 -28
28 c-16 16 -37 43 -48 59 -10 17 -35 52 -54 79 -31 43 -35 55 -34 110 0 33 6
77 13 96 l13 35 7 -43 c14 -92 79 -187 151 -222 36 -17 47 -29 56 -60 15 -48
146 -182 158 -161 7 11 10 11 14 0 4 -10 6 -10 6 2 1 9 -6 22 -14 29 -8 7 -15
17 -15 23 0 5 9 -2 21 -17 20 -26 20 -64 -1 -51 -6 4 -10 -19 -10 -62 0 -37
-5 -105 -12 -151 -10 -75 -13 -82 -33 -82 -39 0 -48 -23 -41 -97 4 -37 4 -64
0 -60 -4 4 -15 0 -25 -9 -21 -19 -79 -15 -90 6 -4 8 -11 28 -14 44 -3 16 -22
42 -41 59 -28 26 -34 38 -34 71 0 63 49 124 116 146 30 10 34 16 34 45 0 39
16 48 71 39 23 -4 39 -3 39 3 0 9 -52 23 -87 23 -21 0 -43 -31 -43 -61 0 -22
-5 -29 -20 -29 -30 0 -116 -89 -128 -132 -14 -51 -5 -77 40 -119 28 -26 38
-44 38 -66 0 -58 70 -85 126 -48 l27 18 -7 -134 c-3 -73 -15 -185 -25 -249
-30 -178 -33 -229 -21 -321 11 -85 52 -189 78 -197 7 -2 0 21 -18 56 -50 99
-56 285 -15 492 12 59 18 147 20 290 l2 205 29 -3 c16 -2 29 -4 29 -5 6 -17
-18 -345 -30 -437 -10 -72 -18 -190 -18 -280 -1 -134 2 -165 22 -230 22 -72
36 -99 45 -89 3 2 -4 31 -15 64 -39 120 -44 227 -19 465 13 118 26 279 29 357
3 78 8 144 11 147 3 3 26 -2 50 -10 85 -30 173 -29 252 1 17 7 22 -30 34 -235
3 -58 19 -172 36 -255 34 -171 39 -292 14 -370 -18 -57 -19 -65 -8 -65 5 0 17
26 27 58 27 82 24 207 -9 356 -22 101 -24 121 -12 130 8 6 53 87 100 179 47
92 99 187 115 211 40 58 137 146 212 192 34 21 56 40 50 42 -21 7 -138 -74
-211 -148 -70 -69 -83 -90 -173 -268 -54 -105 -102 -192 -107 -192 -14 0 -12
41 5 134 24 123 45 205 71 268 26 62 29 78 15 78 -5 0 -15 -16 -21 -36 -7 -19
-14 -33 -16 -31 -8 7 38 117 49 117 5 0 4 -6 -2 -14 -8 -9 -8 -16 -2 -20 6 -4
22 13 37 36 44 70 164 181 231 215 57 28 225 65 238 52 4 -5 12 -40 14 -62 1
-5 5 -6 10 -3 10 7 2 56 -12 74 -7 9 -28 11 -76 6 l-66 -6 -60 68 c-101 115
-157 193 -111 154 8 -6 25 -10 38 -8 21 4 19 6 -13 20 -48 21 -55 34 -21 42
32 7 80 42 70 51 -4 4 -19 -2 -34 -14 -40 -32 -50 -25 -20 13 14 19 34 66 43
106 16 68 16 74 -1 133 -28 99 -27 106 19 124 22 8 57 20 78 27 67 22 82 46
81 134 -1 113 -47 198 -134 242 -53 27 -116 33 -162 16z m-695 -612 c-7 -19
-23 -7 -23 18 0 17 3 18 14 8 8 -6 12 -18 9 -26z m442 26 c3 -5 0 -7 -9 -4 -8
3 -24 -4 -35 -15 -12 -12 -21 -17 -21 -12 0 10 39 41 52 41 4 0 10 -4 13 -10z
m-516 -37 c10 -24 9 -26 -2 -11 -8 10 -17 15 -20 11 -4 -3 -7 1 -7 10 0 26 15
20 29 -10z m484 -27 c-10 -13 -19 -23 -21 -21 -5 5 22 45 31 45 4 0 0 -11 -10
-24z m74 2 c-3 -8 -6 -5 -6 6 -1 11 2 17 5 13 3 -3 4 -12 1 -19z m-801 -45
c-11 -11 -17 4 -9 23 7 18 8 18 11 1 2 -10 1 -21 -2 -24z m369 1 c15 -37 19
-51 10 -43 -8 9 -35 79 -30 79 2 0 12 -16 20 -36z m41 23 c8 3 14 0 14 -7 0
-6 -4 -8 -10 -5 -5 3 -10 4 -10 1 0 -11 35 -82 49 -98 8 -10 9 -18 4 -18 -10
0 -74 123 -72 138 0 4 3 2 5 -5 3 -7 12 -9 20 -6z m114 3 c-8 -5 -24 -9 -35
-9 -16 1 -16 2 5 9 35 11 48 11 30 0z m54 1 c4 -5 -3 -7 -14 -4 -23 6 -26 13
-6 13 8 0 17 -4 20 -9z m103 -33 c-3 -7 -5 -2 -5 12 0 14 2 19 5 13 2 -7 2
-19 0 -25z m60 0 c-3 -8 -6 -5 -6 6 -1 11 2 17 5 13 3 -3 4 -12 1 -19z m-217
-7 c-5 -11 -10 -36 -10 -56 0 -20 -4 -34 -9 -31 -9 6 0 74 13 94 12 20 17 13
6 -7z m68 -6 c-3 -3 -9 2 -12 12 -6 14 -5 15 5 6 7 -7 10 -15 7 -18z m-309
-25 c0 -10 -3 -8 -9 5 -12 27 -12 43 0 25 5 -8 9 -22 9 -30z m70 -15 c0 -5 -6
1 -14 15 -8 14 -14 30 -14 35 0 6 6 -1 14 -15 8 -14 14 -29 14 -35z m443 23
c-8 -8 -9 -4 -5 13 4 13 8 18 11 10 2 -7 -1 -18 -6 -23z m-602 -8 c0 -5 -6 -7
-14 -4 -22 9 -28 -13 -12 -43 9 -17 16 -22 16 -13 1 8 6 2 11 -14 13 -45 4
-43 -25 7 -29 49 -32 63 -13 70 21 9 37 8 37 -3z m69 -35 c0 -5 -4 -3 -9 5 -5
8 -9 22 -9 30 0 16 17 -16 18 -35z m150 -11 c24 -39 28 -58 8 -30 -13 18 -14
18 -20 2 -4 -10 -5 -22 -1 -27 3 -5 3 -9 0 -9 -6 0 -46 66 -46 76 1 5 8 -4 17
-20 13 -25 17 -27 25 -13 5 11 5 24 -2 37 -18 34 -3 22 19 -16z m305 7 c-2 -3
-12 3 -22 13 -16 17 -16 18 5 5 12 -7 20 -15 17 -18z m-125 -26 c0 -5 -4 -3
-9 5 -5 8 -9 22 -9 30 0 16 17 -16 18 -35z m-24 -63 c-5 -5 -25 69 -24 88 0 8
7 -7 14 -35 8 -27 12 -51 10 -53z m-304 -32 c-4 -10 -7 -7 -9 10 -2 14 -7 27
-12 30 -4 3 -10 23 -14 45 -6 38 -5 38 17 -15 13 -30 21 -62 18 -70z m109 23
c0 -3 -18 14 -40 38 -22 24 -40 48 -40 52 0 5 18 -13 40 -38 22 -25 40 -49 40
-52z m435 49 c-5 -6 -45 23 -50 36 -3 7 8 3 24 -10 15 -13 27 -24 26 -26z
m-311 -7 c9 -14 20 -24 24 -21 4 2 9 -6 10 -19 1 -13 -3 -27 -9 -31 -11 -6
-79 52 -79 68 0 5 14 -7 31 -27 17 -19 35 -35 40 -35 18 0 8 25 -23 57 -18 18
-27 33 -21 33 6 0 18 -11 27 -25z m157 -2 c13 -16 12 -17 -3 -4 -17 13 -22 21
-14 21 2 0 10 -8 17 -17z m303 8 c10 -4 -10 -7 -47 -6 -36 0 -63 3 -60 8 5 9
82 8 107 -2z m-644 -48 c7 -9 7 -13 1 -13 -6 0 -18 15 -26 33 -13 27 -14 29
-1 12 9 -11 20 -26 26 -32z m707 21 c3 -8 0 -21 -7 -27 -10 -9 -11 -9 -5 2 5
9 1 19 -10 28 -17 12 -17 13 -2 13 10 0 20 -7 24 -16z m-397 -29 c0 -5 -5 -3
-10 5 -5 8 -10 20 -10 25 0 6 5 3 10 -5 5 -8 10 -19 10 -25z m-216 1 c-3 -9
-10 -16 -15 -16 -5 0 -4 9 3 20 14 22 21 20 12 -4z m284 -7 l27 -9 -27 4 c-19
2 -28 -2 -31 -13 -2 -10 -5 -5 -9 11 -3 16 -1 25 4 22 5 -4 22 -10 36 -15z
m-323 -9 c3 -5 1 -10 -4 -10 -6 0 -11 5 -11 10 0 6 2 10 4 10 3 0 8 -4 11 -10z
m717 -69 c18 -24 54 -66 80 -94 26 -28 45 -53 43 -55 -2 -2 -22 17 -45 42 -23
25 -47 43 -53 39 -6 -3 -7 -1 -3 6 5 7 -6 29 -27 54 -18 23 -39 53 -46 67 -11
23 -11 24 3 5 8 -11 30 -40 48 -64z m-462 59 c0 -5 -2 -10 -4 -10 -3 0 -8 5
-11 10 -3 6 -1 10 4 10 6 0 11 -4 11 -10z m7 -52 c-3 -8 -6 -5 -6 6 -1 11 2
17 5 13 3 -3 4 -12 1 -19z m40 -20 c-3 -7 -5 -2 -5 12 0 14 2 19 5 13 2 -7 2
-19 0 -25z m-399 -28 c7 -11 11 -20 9 -20 -2 0 -12 9 -22 20 -10 11 -14 20 -9
20 5 0 15 -9 22 -20z m369 -67 c-2 -16 -4 -5 -4 22 0 28 2 40 4 28 2 -13 2
-35 0 -50z m-381 21 c-3 -7 0 -16 6 -20 7 -4 8 -3 4 4 -13 21 4 13 44 -20 35
-29 56 -59 30 -43 -5 3 -10 1 -10 -5 0 -17 -31 17 -35 38 -1 9 -9 16 -17 14
-18 -3 -33 13 -43 48 -7 22 -6 24 9 11 9 -8 15 -20 12 -27z m54 11 c11 -13 10
-14 -4 -9 -9 3 -16 10 -16 15 0 13 6 11 20 -6z m49 -33 c-6 -2 2 -15 17 -29
20 -18 29 -21 34 -12 5 7 7 2 7 -14 -2 -25 -2 -25 -47 16 -30 29 -42 46 -35
53 7 8 13 8 21 0 7 -6 8 -13 3 -14z m352 -25 c-10 -9 -11 -8 -5 6 3 10 9 15
12 12 3 -3 0 -11 -7 -18z m-38 -37 c-3 -10 1 -8 11 4 21 26 21 12 0 -19 -16
-25 -42 -36 -28 -13 5 7 7 29 6 48 -1 27 0 30 7 15 4 -11 6 -27 4 -35z m74 25
c0 -8 -4 -12 -9 -9 -5 3 -6 10 -3 15 9 13 12 11 12 -6z m-120 -37 c-3 -7 -5
-2 -5 12 0 14 2 19 5 13 2 -7 2 -19 0 -25z m513 14 c-9 -4 -37 -22 -63 -40
-26 -18 -47 -29 -46 -25 0 12 92 72 109 72 13 0 13 -1 0 -7z m-390 -24 c50
-53 64 -98 65 -199 0 -58 -5 -101 -12 -110 -6 -8 -11 -36 -12 -64 0 -27 -7
-75 -16 -105 -8 -30 -15 -65 -15 -77 0 -13 -4 -23 -9 -23 -4 0 -11 41 -15 90
-8 101 -12 120 -31 120 -7 0 -16 16 -19 35 -6 29 -25 216 -26 252 0 6 -7 19
-16 28 -9 9 -13 19 -10 23 4 3 12 0 17 -8 8 -12 16 -8 41 23 17 20 33 37 34
37 2 0 13 -10 24 -22z m59 -32 c-3 -3 -11 5 -18 17 -13 21 -12 21 5 5 10 -10
16 -20 13 -22z m-371 -11 c-3 -3 -9 2 -12 12 -6 14 -5 15 5 6 7 -7 10 -15 7
-18z m535 -59 c-73 -75 -93 -99 -93 -110 0 -5 -3 -6 -7 -3 -8 9 47 78 99 125
21 19 35 39 31 45 -4 6 -1 7 6 2 9 -5 -1 -22 -36 -59z m-362 31 c-10 -9 -11
-8 -5 6 3 10 9 15 12 12 3 -3 0 -11 -7 -18z m229 -22 c0 -5 -5 -3 -10 5 -5 8
-10 20 -10 25 0 6 5 3 10 -5 5 -8 10 -19 10 -25z m-431 -38 c-1 -29 -4 -63 -8
-77 -5 -15 -7 7 -7 57 1 44 4 79 9 76 4 -2 7 -28 6 -56z m228 -29 c-2 -18 -4
-4 -4 32 0 36 2 50 4 33 2 -18 2 -48 0 -65z m-190 0 c-2 -18 -4 -6 -4 27 0 33
2 48 4 33 2 -15 2 -42 0 -60z m408 33 c3 -5 1 -12 -5 -16 -5 -3 -10 1 -10 9 0
18 6 21 15 7z m-208 -128 c-3 -10 -5 -2 -5 17 0 19 2 27 5 18 2 -10 2 -26 0
-35z m-210 0 c-3 -10 -5 -4 -5 12 0 17 2 24 5 18 2 -7 2 -21 0 -30z m-47 -61
c-9 -3 -9 -6 -1 -12 9 -5 8 -10 -3 -19 -14 -12 -15 -8 -10 30 8 64 17 81 22
39 2 -21 -1 -36 -8 -38z m265 8 c3 -5 1 -10 -4 -10 -6 0 -11 5 -11 10 0 6 2
10 4 10 3 0 8 -4 11 -10z m-225 -31 c0 -16 -4 -28 -9 -25 -8 5 -3 56 5 56 2 0
4 -14 4 -31z m232 -14 c3 -14 1 -25 -3 -25 -5 0 -9 11 -9 25 0 14 2 25 4 25 2
0 6 -11 8 -25z m-185 -21 c-3 -3 -12 -4 -19 -1 -8 3 -5 6 6 6 11 1 17 -2 13
-5z m163 -10 c0 -2 -7 -4 -15 -4 -8 0 -15 4 -15 10 0 5 7 7 15 4 8 -4 15 -8
15 -10z m-93 0 c-3 -3 -12 -4 -19 -1 -8 3 -5 6 6 6 11 1 17 -2 13 -5z"/>
<path d="M3070 1476 c0 -2 8 -10 18 -17 15 -13 16 -12 3 4 -13 16 -21 21 -21
13z"/>
<path d="M5653 2574 c-3 -8 1 -22 9 -30 12 -12 17 -12 33 0 16 12 17 16 6 30
-17 20 -40 21 -48 0z"/>
<path d="M5799 2559 c-9 -17 -8 -23 2 -30 19 -12 25 -11 39 6 15 18 6 45 -14
45 -9 0 -20 -10 -27 -21z"/>
<path d="M5963 2554 c-3 -8 1 -22 9 -30 12 -12 17 -12 33 -1 23 17 14 47 -15
47 -11 0 -23 -7 -27 -16z"/>
<path d="M2492 2552 c-7 -5 -33 -26 -57 -47 -37 -31 -45 -44 -45 -72 0 -60 34
-108 82 -117 14 -2 38 -12 52 -21 24 -16 28 -16 51 -1 13 9 36 16 50 16 45 0
65 17 65 56 0 24 -8 43 -25 60 -14 14 -25 33 -25 42 0 56 -101 113 -148 84z
m43 -32 c3 -5 -1 -10 -10 -10 -9 0 -13 5 -10 10 3 6 8 10 10 10 2 0 7 -4 10
-10z m36 -37 c4 -4 -13 -8 -39 -7 -64 1 -69 3 -52 15 16 10 78 5 91 -8z m-126
-13 c-3 -5 -1 -19 6 -31 6 -12 13 -42 14 -66 2 -37 1 -42 -12 -32 -37 31 -55
103 -31 127 14 14 32 16 23 2z m140 -20 c8 -13 -15 -13 -35 0 -12 8 -11 10 7
10 12 0 25 -4 28 -10z m83 -63 c17 -35 2 -57 -39 -57 -24 0 -29 4 -29 25 0 33
21 66 40 63 8 -2 21 -16 28 -31z m-134 -8 c-8 -14 -24 -10 -24 6 0 9 6 12 15
9 8 -4 12 -10 9 -15z m-28 -36 c-4 -4 -11 -1 -16 7 -16 25 -11 35 7 17 9 -9
13 -20 9 -24z m54 12 c-7 -8 -17 -15 -22 -15 -6 0 -5 7 2 15 7 8 17 15 22 15
6 0 5 -7 -2 -15z m2 -47 c-6 -6 -15 -8 -19 -4 -4 4 -1 11 7 16 19 12 27 3 12
-12z"/>
<path d="M5540 2300 c-12 -22 2 -60 21 -60 22 0 49 21 49 38 0 41 -51 57 -70
22z m46 -11 c10 -17 -13 -36 -27 -22 -12 12 -4 33 11 33 5 0 12 -5 16 -11z"/>
<path d="M2324 2263 c-61 -12 -89 -103 -60 -196 12 -41 12 -46 0 -36 -8 6 -18
9 -21 5 -8 -8 46 -55 63 -56 7 0 15 17 19 38 4 20 12 43 17 50 6 7 8 16 4 20
-9 8 -36 -26 -36 -45 0 -29 -17 -10 -28 32 -15 55 -15 110 -2 135 15 29 71 43
119 30 115 -31 114 -132 -4 -269 -25 -29 -52 -65 -60 -80 -7 -14 -27 -35 -44
-46 -40 -26 -51 -54 -51 -128 0 -77 23 -130 78 -179 50 -45 74 -52 155 -44 34
4 95 9 134 12 40 4 70 10 67 15 -8 14 -91 11 -169 -6 -90 -19 -130 -8 -184 47
-46 47 -61 88 -61 170 0 46 5 62 25 85 l24 28 1 -40 c1 -48 21 -109 45 -135
41 -45 135 -29 135 22 0 55 -82 168 -122 168 -30 0 -21 22 46 103 68 84 102
163 90 211 -8 34 -54 72 -102 86 -38 10 -42 10 -78 3z m100 -467 c37 -48 53
-101 37 -120 -18 -21 -64 -20 -84 2 -35 39 -61 144 -41 165 12 12 66 -16 88
-47z"/>
<path d="M2379 1409 c-12 -23 -4 -84 12 -95 17 -10 21 3 9 26 -15 29 -5 70 18
70 30 0 42 -22 42 -76 0 -51 28 -109 45 -92 4 4 0 14 -9 23 -11 11 -16 34 -16
74 0 43 -5 62 -18 74 -26 24 -69 22 -83 -4z"/>
<path d="M2735 1385 c-5 -2 -22 -6 -37 -9 -30 -7 -63 -58 -54 -81 3 -8 -6 -34
-19 -58 -31 -55 -42 -126 -25 -167 20 -49 89 -58 159 -20 35 18 35 7 1 -54
-27 -47 -30 -59 -19 -72 12 -15 24 -15 60 1 15 5 17 -2 18 -50 0 -30 5 -63 10
-73 13 -21 14 -14 11 68 -2 78 -9 88 -52 72 -17 -6 -34 -10 -36 -7 -2 2 10 27
27 55 51 83 39 104 -43 70 -64 -27 -106 -19 -120 23 -11 30 7 121 29 150 13
18 15 18 44 -4 70 -51 200 21 145 82 -23 25 -88 25 -137 0 -40 -20 -48 -11
-22 26 23 32 79 37 155 14 36 -11 68 -17 73 -12 11 11 -143 54 -168 46z m89
-90 c20 -54 -85 -88 -135 -44 -14 12 -19 22 -13 25 6 3 20 11 30 19 26 20 110
20 118 0z"/>
<path d="M4170 1380 c0 -5 20 -26 45 -46 25 -22 51 -55 60 -78 9 -23 38 -75
65 -116 75 -118 108 -208 135 -370 27 -163 36 -201 47 -194 5 3 7 18 3 33 -4
14 -13 67 -21 116 -32 203 -67 302 -157 442 -26 40 -49 83 -53 97 -3 13 -19
36 -34 51 -90 84 -90 84 -90 65z"/>
<path d="M3085 1250 c-8 -14 3 -30 21 -30 8 0 14 9 14 20 0 21 -24 28 -35 10z"/>
<path d="M2550 1240 c0 -5 5 -10 10 -10 6 0 10 5 10 10 0 6 -4 10 -10 10 -5 0
-10 -4 -10 -10z"/>
<path d="M3014 1135 c-3 -8 -3 -19 0 -24 10 -16 36 -1 36 20 0 22 -28 26 -36
4z"/>
<path d="M2956 1054 c-16 -15 -16 -18 -2 -33 15 -14 18 -14 33 2 16 15 16 18
2 33 -15 14 -18 14 -33 -2z"/>
<path d="M2866 832 c-3 -5 -8 -29 -12 -52 l-7 -44 -39 44 c-21 25 -38 39 -38
32 0 -18 72 -111 86 -112 6 0 14 28 17 67 6 66 5 83 -7 65z"/>
<path d="M4254 646 c-66 -21 -178 -106 -161 -123 4 -3 27 13 51 35 45 42 103
72 143 75 12 1 23 6 23 12 2 15 -11 15 -56 1z"/>
<path d="M4256 549 c-161 -38 -301 -170 -411 -388 -20 -41 -48 -92 -62 -113
-14 -21 -23 -41 -19 -45 10 -10 20 4 87 127 76 140 109 190 169 254 80 86 171
134 285 151 24 4 42 11 39 16 -6 11 -36 10 -88 -2z"/>
<path d="M4502 421 c-16 -91 -44 -413 -37 -419 12 -12 16 12 26 129 6 68 17
170 25 226 16 118 17 133 5 133 -4 0 -13 -31 -19 -69z"/>
</g>
</svg>
