<?xml version="1.0" standalone="no"?>
<!DOCTYPE svg PUBLIC "-//W3C//DTD SVG 20010904//EN"
 "http://www.w3.org/TR/2001/REC-SVG-20010904/DTD/svg10.dtd">
<svg version="1.0" xmlns="http://www.w3.org/2000/svg"
 width="612.000000pt" height="490.000000pt" viewBox="0 0 612.000000 490.000000"
 preserveAspectRatio="xMidYMid meet">

<g transform="translate(0.000000,490.000000) scale(0.100000,-0.100000)"
fill="#000000" stroke="none">
<path d="M3320 3666 c-25 -7 -62 -20 -84 -29 -109 -47 -294 -204 -336 -287
-12 -23 -37 -56 -57 -73 -19 -17 -51 -56 -72 -86 -39 -60 -76 -85 -182 -126
-36 -14 -77 -38 -92 -53 -30 -31 -57 -91 -57 -125 0 -19 -10 -28 -57 -47 -87
-35 -147 -101 -174 -191 -20 -67 -21 -86 -16 -238 4 -91 14 -211 22 -266 8
-55 20 -137 27 -183 9 -66 15 -81 27 -78 9 2 39 7 66 11 28 4 78 14 113 22 44
11 66 13 74 5 6 -6 21 -7 42 -1 39 12 239 52 371 74 110 19 134 30 245 104 41
28 85 51 96 51 12 0 44 -18 70 -40 27 -22 54 -40 61 -40 7 0 13 -11 13 -24 0
-38 111 -210 138 -214 19 -3 21 0 13 20 -24 65 -76 386 -90 570 -10 118 -14
134 -51 210 -22 46 -40 96 -40 111 l0 28 -61 -7 c-52 -6 -64 -4 -89 15 -35 26
-40 26 -40 3 0 -9 25 -36 55 -60 50 -39 54 -45 44 -69 -32 -85 -83 -117 -179
-111 -95 5 -195 56 -276 140 -97 102 -158 208 -120 208 48 0 134 48 242 136
109 88 119 94 148 87 17 -4 97 -7 178 -5 117 2 166 -1 244 -18 53 -11 119 -20
146 -20 47 0 49 -1 43 -22 -11 -36 -83 -110 -168 -172 -34 -26 -37 -30 -21
-36 62 -22 67 -21 109 36 22 29 48 56 57 59 27 9 96 98 125 162 24 51 28 70
28 159 0 96 -1 103 -39 179 -49 99 -114 166 -204 208 -58 28 -79 32 -157 34
-51 1 -109 -4 -135 -11z"/>
<path d="M1768 2229 c-10 -5 -18 -15 -18 -20 0 -6 4 -7 10 -4 6 3 7 -1 4 -9
-3 -9 -9 -14 -13 -12 -9 6 -7 -51 3 -84 6 -20 5 -22 -4 -10 -9 13 -10 12 -6
-5 3 -11 10 -65 17 -120 7 -58 18 -107 27 -117 9 -11 11 -18 4 -18 -6 0 -9 -7
-6 -15 5 -13 -15 -15 -149 -15 l-154 0 -104 -150 c-57 -83 -127 -183 -154
-223 -221 -315 -225 -322 -225 -382 l0 -55 2108 2 2107 3 3 50 2 50 -161 210
c-88 116 -170 222 -182 237 -12 14 -62 79 -111 142 l-88 116 -447 0 -446 -1
-27 -39 c-24 -34 -33 -40 -64 -40 -29 0 -43 8 -73 40 -33 35 -42 40 -83 40
-40 0 -49 4 -70 33 -14 17 -36 66 -49 107 -12 41 -31 84 -41 95 -24 26 -23 9
7 -79 14 -41 25 -93 25 -115 l0 -41 -81 0 c-73 0 -80 2 -74 18 3 9 9 29 12 43
4 23 1 27 -23 32 -15 3 -35 1 -43 -3 -292 -145 -585 -240 -748 -243 -72 -2
-84 1 -105 21 -14 12 -32 47 -42 77 l-17 55 -207 2 c-132 2 -206 7 -204 13 2
6 -7 13 -20 17 -21 6 -21 6 -2 7 19 1 20 5 13 59 -4 31 -12 95 -18 142 -6 46
-16 89 -21 94 -6 6 -10 20 -10 33 0 13 -4 23 -10 23 -5 0 -7 7 -4 15 4 10 0
15 -12 15 -16 0 -17 2 -4 10 20 13 0 12 -22 -1z m22 -59 c0 -11 -2 -20 -4 -20
-2 0 -6 9 -9 20 -3 11 -1 20 4 20 5 0 9 -9 9 -20z m-3 -252 c-3 -8 -6 -5 -6 6
-1 11 2 17 5 13 3 -3 4 -12 1 -19z m42 -30 c7 -28 6 -38 -2 -38 -7 0 -13 19
-14 48 -2 50 0 49 16 -10z m-32 -20 c-3 -7 -5 -2 -5 12 0 14 2 19 5 13 2 -7 2
-19 0 -25z m33 -49 c0 -11 -4 -17 -10 -14 -5 3 -10 13 -10 21 0 8 5 14 10 14
6 0 10 -9 10 -21z m1680 -114 c5 -14 11 -25 13 -25 2 0 2 11 -1 25 -3 21 0 25
18 25 13 0 24 -8 27 -20 4 -14 14 -20 32 -20 48 0 213 -40 257 -61 53 -27 65
-61 33 -95 -12 -13 -27 -24 -32 -24 -5 0 -46 -18 -91 -40 -45 -22 -116 -47
-157 -56 -236 -49 -637 -26 -760 44 -19 11 -57 27 -85 36 -77 25 -111 65 -86
102 15 24 94 56 184 74 186 38 543 54 571 25 12 -11 17 -12 20 -2 3 7 9 2 16
-13 l11 -25 -5 28 c-10 49 18 66 35 22z"/>
</g>
</svg>
